<?xml version="1.0" standalone="no"?>
<svg viewBox="0 0 200 200" xmlns="http://www.w3.org/2000/svg">
  <path fill="#8A3FFC" d="M32.9,-52.3C43.4,-44.4,53.4,-36.7,59.6,-26.3C65.8,-15.9,68.3,-2.9,67,9.9C65.6,22.7,60.4,35.3,51.8,44.4C43.2,53.5,31.1,59.2,19.3,60C7.6,60.7,-3.9,56.5,-13.9,51.7C-24,46.8,-32.5,41.2,-44,34.5C-55.6,27.8,-70,20,-76.8,7.8C-83.6,-4.4,-82.8,-20.9,-73.8,-30.9C-64.9,-41,-47.9,-44.6,-34.3,-51.1C-20.6,-57.6,-10.3,-67,0.4,-67.7C11.2,-68.3,22.3,-60.2,32.9,-52.3Z" transform="translate(100 100)" />
</svg>
